<svg xmlns="http://www.w3.org/2000/svg" xmlns:xlink="http://www.w3.org/1999/xlink" width="500" zoomAndPan="magnify" viewBox="0 0 375 374.999991" height="500" preserveAspectRatio="xMidYMid meet" version="1.0"><defs><g/><clipPath id="id1"><path d="M 6.976562 8.03125 L 365.628906 8.03125 L 365.628906 366.683594 L 6.976562 366.683594 Z M 6.976562 8.03125 " clip-rule="nonzero"/></clipPath><clipPath id="id2"><path d="M 29.058594 30.113281 L 344.058594 30.113281 L 344.058594 345.113281 L 29.058594 345.113281 Z M 29.058594 30.113281 " clip-rule="nonzero"/></clipPath></defs><g clip-path="url(#id1)"><path fill="#000000" d="M 186.304688 366.683594 C 138.425781 366.683594 93.34375 348.046875 59.511719 314.148438 C 25.609375 280.316406 6.976562 235.234375 6.976562 187.355469 C 6.976562 139.480469 25.609375 94.394531 59.511719 60.566406 C 93.34375 26.664062 138.425781 8.03125 186.304688 8.03125 C 234.179688 8.03125 279.261719 26.664062 313.09375 60.566406 C 346.996094 94.46875 365.628906 139.480469 365.628906 187.355469 C 365.628906 235.234375 346.996094 280.316406 313.09375 314.148438 C 279.261719 348.046875 234.179688 366.683594 186.304688 366.683594 Z M 186.304688 18.78125 C 141.292969 18.78125 98.933594 36.339844 67.109375 68.164062 C 35.285156 99.988281 17.726562 142.34375 17.726562 187.355469 C 17.726562 232.367188 35.285156 274.726562 67.109375 306.550781 C 98.933594 338.371094 141.292969 355.933594 186.304688 355.933594 C 231.3125 355.933594 273.671875 338.371094 305.496094 306.550781 C 337.320312 274.726562 354.878906 232.367188 354.878906 187.355469 C 354.878906 142.34375 337.320312 99.988281 305.496094 68.164062 C 273.671875 36.339844 231.3125 18.78125 186.304688 18.78125 Z M 186.304688 18.78125 " fill-opacity="1" fill-rule="nonzero"/></g><g clip-path="url(#id2)"><path fill="#000000" d="M 186.558594 30.113281 C 99.574219 30.113281 29.058594 100.628906 29.058594 187.613281 C 29.058594 274.597656 99.574219 345.113281 186.558594 345.113281 C 273.542969 345.113281 344.058594 274.597656 344.058594 187.613281 C 344.058594 100.628906 273.542969 30.113281 186.558594 30.113281 " fill-opacity="1" fill-rule="nonzero"/></g><g fill="#ffffff" fill-opacity="1"><g transform="translate(130.680129, 247.172801)"><g><path d="M 18.890625 -143.78125 L 81.34375 -143.78125 C 96.269531 -143.78125 108.046875 -140.597656 116.671875 -134.234375 C 125.296875 -127.867188 129.609375 -119.070312 129.609375 -107.84375 C 129.609375 -99.757812 127.347656 -92.875 122.828125 -87.1875 C 118.304688 -81.507812 112.144531 -77.710938 104.34375 -75.796875 C 113.925781 -74.148438 121.457031 -70.109375 126.9375 -63.671875 C 132.414062 -57.234375 135.15625 -49.15625 135.15625 -39.4375 C 135.15625 -27.113281 130.5 -17.457031 121.1875 -10.46875 C 111.875 -3.488281 99.070312 0 82.78125 0 L 18.890625 0 Z M 43.140625 -122.21875 L 43.140625 -84.21875 L 80.109375 -84.21875 C 87.773438 -84.21875 93.796875 -85.925781 98.171875 -89.34375 C 102.554688 -92.769531 104.75 -97.492188 104.75 -103.515625 C 104.75 -109.546875 102.59375 -114.171875 98.28125 -117.390625 C 93.96875 -120.609375 87.910156 -122.21875 80.109375 -122.21875 Z M 43.140625 -62.859375 L 43.140625 -21.5625 L 80.109375 -21.5625 C 89.691406 -21.5625 97.117188 -23.375 102.390625 -27 C 107.660156 -30.632812 110.296875 -35.804688 110.296875 -42.515625 C 110.296875 -48.816406 107.625 -53.78125 102.28125 -57.40625 C 96.945312 -61.039062 89.554688 -62.859375 80.109375 -62.859375 Z M 43.140625 -62.859375 "/></g></g></g><g fill="#ffbd59" fill-opacity="1"><g transform="translate(95.531332, 281.269666)"><g><path d="M 43.125 -21.984375 L 105.359375 -21.984375 L 105.359375 0 L 18.890625 0 L 18.890625 -143.78125 L 43.125 -143.78125 Z M 43.125 -21.984375 "/></g></g></g></svg>